<?xml version="1.0" encoding="UTF-8" standalone="no"?>
<svg
   xmlns:dc="http://purl.org/dc/elements/1.1/"
   xmlns:cc="http://creativecommons.org/ns#"
   xmlns:rdf="http://www.w3.org/1999/02/22-rdf-syntax-ns#"
   xmlns:svg="http://www.w3.org/2000/svg"
   xmlns="http://www.w3.org/2000/svg"
   xmlns:sodipodi="http://sodipodi.sourceforge.net/DTD/sodipodi-0.dtd"
   xmlns:inkscape="http://www.inkscape.org/namespaces/inkscape"
   height="100"
   width="400"
   version="1.1"
   id="Calque_1"
   x="0px"
   y="0px"
   viewBox="0 0 400 100"
   xml:space="preserve"
   sodipodi:docname="products-logo.svg"
   inkscape:version="1.0 (4035a4f, 2020-05-01)"><metadata
   id="metadata942"><rdf:RDF><cc:Work
       rdf:about=""><dc:format>image/svg+xml</dc:format><dc:type
         rdf:resource="http://purl.org/dc/dcmitype/StillImage" /><dc:title></dc:title></cc:Work></rdf:RDF></metadata><defs
   id="defs940"><rect
     id="rect900"
     height="58.775513"
     width="268.16327"
     y="196.16327"
     x="199.83675" /></defs><sodipodi:namedview
   inkscape:document-rotation="0"
   pagecolor="#ffffff"
   bordercolor="#666666"
   borderopacity="1"
   objecttolerance="10"
   gridtolerance="10"
   guidetolerance="10"
   inkscape:pageopacity="0"
   inkscape:pageshadow="2"
   inkscape:window-width="1430"
   inkscape:window-height="953"
   id="namedview938"
   showgrid="false"
   inkscape:zoom="1.4362069"
   inkscape:cx="164.16567"
   inkscape:cy="152.89406"
   inkscape:window-x="0"
   inkscape:window-y="25"
   inkscape:window-maximized="0"
   inkscape:current-layer="Calque_1" />
<style
   type="text/css"
   id="style833">
	.st0{fill:#00363A;}
	.st1{fill-rule:evenodd;clip-rule:evenodd;fill:#C4001D;}
	.st2{fill-rule:evenodd;clip-rule:evenodd;fill:#FF616F;}
	.st3{fill-rule:evenodd;clip-rule:evenodd;fill:#FF1744;}
	.st4{fill:#FFFFFF;}
</style>
<rect
   x="669.73999"
   y="-2.8699999"
   class="st0"
   width="546.70001"
   height="546.70001"
   id="rect835" />
<text
   transform="translate(-510.2002,341.0789)"
   class="st0"
   style="font-size:72px;font-family:RedHatDisplay-Bold"
   id="text837">sarus</text>
<text
   transform="translate(-461.8148,363.0028)"
   class="st0"
   style="font-size:14px;font-family:RedHatDisplay-Medium"
   id="text839">technologies</text>























<g
   transform="matrix(0.35630108,0,0,0.35630108,-42.345353,-24.892619)"
   id="g896"><polygon
     id="polygon875"
     points="245.99,244.16 149.12,310.92 228.23,279.98 "
     class="st1" /><polygon
     id="polygon877"
     points="246.16,244.08 195.93,278.79 175.57,277.62 "
     class="st2" /><polygon
     id="polygon879"
     points="191.58,111.97 252.78,230.55 287.22,160.13 "
     class="st2" /><polygon
     id="polygon881"
     points="185.08,153.96 252.84,230.56 214.29,155.87 "
     class="st3" /><polygon
     id="polygon883"
     points="362.28,155.69 354.11,180.85 390.88,181.95 "
     class="st3" /><polygon
     id="polygon885"
     points="305.5,196.54 332.47,249.27 362.35,155.69 "
     class="st1" /><polygon
     id="polygon887"
     points="287.14,159.82 228.01,279.98 332.54,249.13 "
     class="st3" /></g>
<path
   class="st4"
   d="m 802.76,382.48 7.59,-10.16 c 3.42,2.23 6.66,3.89 9.71,4.97 3.05,1.08 6.1,1.62 9.16,1.62 3.42,0 6.16,-0.56 8.21,-1.68 2.05,-1.12 3.07,-2.61 3.07,-4.47 0,-1.49 -0.58,-2.68 -1.73,-3.57 -1.15,-0.89 -3,-1.53 -5.53,-1.9 l -11.17,-1.68 c -5.73,-0.89 -10.11,-2.75 -13.12,-5.58 -3.01,-2.83 -4.52,-6.59 -4.52,-11.28 0,-5.58 2.2,-10.05 6.59,-13.4 4.39,-3.35 10.27,-5.03 17.64,-5.03 4.24,0 8.38,0.61 12.4,1.84 4.02,1.23 7.85,3.04 11.5,5.42 l -7.37,9.83 c -3.2,-1.86 -6.25,-3.25 -9.16,-4.19 -2.9,-0.93 -5.84,-1.39 -8.82,-1.39 -2.76,0 -4.97,0.52 -6.64,1.56 -1.68,1.04 -2.51,2.42 -2.51,4.13 0,1.56 0.61,2.77 1.84,3.63 1.23,0.86 3.26,1.47 6.09,1.84 l 11.17,1.68 c 5.66,0.82 10.03,2.68 13.12,5.58 3.09,2.9 4.63,6.59 4.63,11.05 0,2.75 -0.65,5.3 -1.95,7.65 -1.3,2.35 -3.07,4.37 -5.3,6.09 -2.23,1.71 -4.91,3.05 -8.04,4.02 -3.13,0.97 -6.51,1.45 -10.16,1.45 -5.29,0 -10.24,-0.69 -14.85,-2.07 -4.63,-1.36 -8.57,-3.35 -11.85,-5.96 z"
   id="path889" />
<path
   class="st4"
   d="m 880.93,390.41 c -6.25,0 -11.35,-1.66 -15.3,-4.97 -3.95,-3.31 -5.92,-7.61 -5.92,-12.9 0,-5.51 2.12,-9.83 6.36,-12.95 4.24,-3.13 10.09,-4.69 17.53,-4.69 2.38,0 4.76,0.19 7.15,0.56 2.38,0.37 4.73,0.93 7.04,1.68 V 353 c 0,-3.35 -1.04,-5.88 -3.13,-7.59 -2.08,-1.71 -5.14,-2.57 -9.16,-2.57 -2.46,0 -5.12,0.39 -7.98,1.17 -2.87,0.78 -6.12,1.99 -9.77,3.63 l -5.58,-11.28 c 4.54,-2.08 8.95,-3.65 13.23,-4.69 4.28,-1.04 8.5,-1.56 12.67,-1.56 7.82,0 13.9,1.88 18.26,5.64 4.36,3.76 6.53,9.06 6.53,15.91 v 37.74 h -15.07 v -4.02 c -2.46,1.71 -5.04,2.98 -7.76,3.8 -2.72,0.82 -5.75,1.23 -9.1,1.23 z m -6.59,-18.2 c 0,2.23 0.97,4 2.9,5.3 1.93,1.3 4.5,1.95 7.7,1.95 2.53,0 4.86,-0.32 6.98,-0.95 2.12,-0.63 4.08,-1.54 5.86,-2.74 v -8.71 c -1.86,-0.74 -3.82,-1.28 -5.86,-1.62 -2.05,-0.33 -4.19,-0.5 -6.42,-0.5 -3.5,0 -6.24,0.65 -8.21,1.95 -1.96,1.32 -2.95,3.08 -2.95,5.32 z"
   id="path891" />
<path
   class="st4"
   d="m 924.48,389.4 v -58.18 h 15.3 v 6.36 c 1.86,-2.53 4.11,-4.45 6.76,-5.75 2.64,-1.3 5.56,-1.95 8.76,-1.95 1.49,0.08 2.74,0.21 3.74,0.39 1.01,0.19 1.88,0.5 2.62,0.95 v 13.4 c -1.12,-0.52 -2.35,-0.91 -3.68,-1.17 -1.34,-0.26 -2.72,-0.39 -4.13,-0.39 -2.98,0 -5.71,0.75 -8.21,2.23 -2.5,1.49 -4.45,3.65 -5.86,6.48 v 37.63 z"
   id="path893" />
<path
   class="st4"
   d="m 983.43,331.23 v 33.83 c 0,3.72 1.1,6.7 3.29,8.93 2.19,2.23 5.12,3.35 8.77,3.35 2.61,0 4.93,-0.5 6.98,-1.51 2.05,-1.01 3.74,-2.44 5.08,-4.3 v -40.31 h 15.3 v 58.18 h -15.3 v -4.69 c -2.23,1.86 -4.73,3.29 -7.48,4.3 -2.75,1.01 -5.73,1.51 -8.93,1.51 -6.7,0 -12.21,-2.18 -16.53,-6.53 -4.32,-4.35 -6.48,-9.92 -6.48,-16.69 v -36.07 z"
   id="path895" />
<path
   class="st4"
   d="m 1029.89,382.48 7.59,-10.16 c 3.42,2.23 6.66,3.89 9.71,4.97 3.05,1.08 6.1,1.62 9.16,1.62 3.42,0 6.16,-0.56 8.21,-1.68 2.05,-1.12 3.07,-2.61 3.07,-4.47 0,-1.49 -0.58,-2.68 -1.73,-3.57 -1.16,-0.89 -3,-1.53 -5.53,-1.9 l -11.17,-1.68 c -5.73,-0.89 -10.11,-2.75 -13.12,-5.58 -3.01,-2.83 -4.52,-6.59 -4.52,-11.28 0,-5.58 2.19,-10.05 6.59,-13.4 4.39,-3.35 10.27,-5.03 17.64,-5.03 4.24,0 8.38,0.61 12.4,1.84 4.02,1.23 7.85,3.04 11.5,5.42 l -7.37,9.83 c -3.2,-1.86 -6.25,-3.25 -9.16,-4.19 -2.9,-0.93 -5.84,-1.39 -8.82,-1.39 -2.76,0 -4.97,0.52 -6.64,1.56 -1.68,1.04 -2.51,2.42 -2.51,4.13 0,1.56 0.61,2.77 1.84,3.63 1.23,0.86 3.25,1.47 6.09,1.84 l 11.17,1.68 c 5.66,0.82 10.03,2.68 13.12,5.58 3.09,2.9 4.63,6.59 4.63,11.05 0,2.75 -0.65,5.3 -1.95,7.65 -1.3,2.35 -3.07,4.37 -5.3,6.09 -2.23,1.71 -4.91,3.05 -8.04,4.02 -3.13,0.97 -6.52,1.45 -10.16,1.45 -5.29,0 -10.24,-0.69 -14.85,-2.07 -4.63,-1.36 -8.58,-3.35 -11.85,-5.96 z"
   id="path897" />
<path
   class="st4"
   d="m 879.32,420.67 v -6.49 h -2.35 v -1.82 h 2.35 v -2.82 l 2.15,-0.52 v 3.34 h 3.26 v 1.82 h -3.26 v 5.99 c 0,0.56 0.13,0.96 0.38,1.19 0.25,0.23 0.67,0.35 1.25,0.35 0.3,0 0.58,-0.02 0.81,-0.05 0.24,-0.04 0.5,-0.1 0.77,-0.21 v 1.82 c -0.29,0.1 -0.63,0.18 -1.01,0.24 -0.38,0.06 -0.74,0.09 -1.05,0.09 -1.07,0 -1.89,-0.25 -2.45,-0.75 -0.56,-0.5 -0.85,-1.23 -0.85,-2.18 z"
   id="path899" />
<path
   class="st4"
   d="m 896.24,422.15 c -0.64,0.49 -1.3,0.86 -2,1.1 -0.69,0.24 -1.45,0.36 -2.28,0.36 -0.81,0 -1.57,-0.15 -2.28,-0.45 -0.71,-0.3 -1.32,-0.7 -1.85,-1.21 -0.52,-0.51 -0.93,-1.11 -1.23,-1.81 -0.3,-0.7 -0.45,-1.46 -0.45,-2.27 0,-0.8 0.14,-1.54 0.43,-2.24 0.29,-0.7 0.68,-1.3 1.17,-1.8 0.49,-0.51 1.08,-0.91 1.76,-1.21 0.68,-0.3 1.4,-0.45 2.17,-0.45 0.75,0 1.46,0.15 2.12,0.45 0.66,0.3 1.22,0.7 1.69,1.22 0.47,0.51 0.84,1.13 1.12,1.83 0.27,0.71 0.41,1.47 0.41,2.28 v 0.63 h -8.73 c 0.14,0.91 0.56,1.67 1.26,2.27 0.69,0.6 1.52,0.9 2.47,0.9 0.54,0 1.05,-0.09 1.54,-0.26 0.49,-0.17 0.91,-0.41 1.26,-0.72 z M 891.66,414 c -0.82,0 -1.54,0.27 -2.16,0.82 -0.61,0.55 -1,1.26 -1.16,2.13 h 6.56 c -0.16,-0.84 -0.54,-1.54 -1.14,-2.11 -0.61,-0.55 -1.31,-0.84 -2.1,-0.84 z"
   id="path901" />
<path
   class="st4"
   d="m 904.71,421.69 c 0.55,0 1.07,-0.11 1.56,-0.34 0.49,-0.22 0.96,-0.56 1.41,-1.01 l 1.3,1.41 c -0.58,0.58 -1.24,1.03 -2,1.36 -0.75,0.33 -1.54,0.49 -2.37,0.49 -0.8,0 -1.54,-0.15 -2.24,-0.45 -0.69,-0.3 -1.3,-0.7 -1.8,-1.21 -0.51,-0.51 -0.91,-1.11 -1.2,-1.81 -0.3,-0.7 -0.45,-1.46 -0.45,-2.27 0,-0.8 0.15,-1.54 0.45,-2.25 0.3,-0.7 0.7,-1.31 1.2,-1.83 0.51,-0.51 1.11,-0.92 1.8,-1.21 0.7,-0.3 1.44,-0.45 2.24,-0.45 0.83,0 1.63,0.16 2.41,0.49 0.78,0.33 1.46,0.78 2.04,1.36 l -1.37,1.48 c -0.42,-0.45 -0.89,-0.79 -1.41,-1.03 -0.52,-0.24 -1.06,-0.36 -1.63,-0.36 -1,0 -1.85,0.37 -2.54,1.11 -0.7,0.74 -1.04,1.64 -1.04,2.69 0,1.09 0.35,1.99 1.05,2.72 0.71,0.74 1.57,1.11 2.59,1.11 z"
   id="path903" />
<path
   class="st4"
   d="m 911.07,423.4 v -15.2 l 2.17,-0.48 v 5.73 c 0.43,-0.43 0.93,-0.76 1.49,-0.99 0.56,-0.22 1.17,-0.34 1.83,-0.34 1.26,0 2.29,0.4 3.1,1.2 0.81,0.8 1.22,1.84 1.22,3.12 v 6.95 h -2.17 v -6.58 c 0,-0.87 -0.25,-1.55 -0.75,-2.05 -0.5,-0.5 -1.16,-0.75 -1.99,-0.75 -0.58,0 -1.1,0.12 -1.57,0.37 -0.47,0.25 -0.86,0.6 -1.16,1.06 v 7.95 h -2.17 z"
   id="path905" />
<path
   class="st4"
   d="m 923.7,423.4 v -11.05 h 2.17 v 1.11 c 0.43,-0.43 0.93,-0.76 1.49,-0.99 0.56,-0.22 1.17,-0.34 1.83,-0.34 1.26,0 2.29,0.4 3.1,1.2 0.81,0.8 1.22,1.84 1.22,3.12 v 6.95 h -2.17 v -6.58 c 0,-0.87 -0.25,-1.55 -0.75,-2.05 -0.5,-0.5 -1.16,-0.75 -1.99,-0.75 -0.58,0 -1.1,0.12 -1.57,0.37 -0.47,0.25 -0.86,0.6 -1.16,1.06 v 7.95 z"
   id="path907" />
<path
   class="st4"
   d="m 935.84,417.87 c 0,-0.8 0.15,-1.54 0.45,-2.25 0.3,-0.7 0.71,-1.31 1.23,-1.83 0.52,-0.51 1.13,-0.92 1.83,-1.21 0.7,-0.3 1.45,-0.45 2.25,-0.45 0.8,0 1.54,0.15 2.25,0.45 0.7,0.3 1.31,0.7 1.82,1.21 0.51,0.51 0.92,1.12 1.22,1.83 0.3,0.7 0.45,1.45 0.45,2.25 0,0.81 -0.15,1.57 -0.45,2.27 -0.3,0.7 -0.7,1.31 -1.22,1.83 -0.52,0.52 -1.12,0.92 -1.82,1.21 -0.7,0.3 -1.45,0.45 -2.25,0.45 -0.8,0 -1.54,-0.15 -2.25,-0.45 -0.7,-0.3 -1.31,-0.7 -1.83,-1.21 -0.52,-0.51 -0.93,-1.12 -1.23,-1.83 -0.3,-0.7 -0.45,-1.46 -0.45,-2.27 z m 5.75,3.84 c 1,0 1.85,-0.37 2.55,-1.12 0.7,-0.75 1.05,-1.65 1.05,-2.72 0,-1.07 -0.35,-1.97 -1.05,-2.71 -0.7,-0.74 -1.55,-1.11 -2.55,-1.11 -1,0 -1.85,0.37 -2.56,1.11 -0.71,0.74 -1.06,1.64 -1.06,2.71 0,1.07 0.35,1.98 1.05,2.72 0.7,0.75 1.56,1.12 2.57,1.12 z"
   id="path909" />
<path
   class="st4"
   d="m 951.89,407.73 v 15.68 h -2.17 v -15.2 z"
   id="path911" />
<path
   class="st4"
   d="m 954.27,417.87 c 0,-0.8 0.15,-1.54 0.45,-2.25 0.3,-0.7 0.71,-1.31 1.23,-1.83 0.52,-0.51 1.13,-0.92 1.83,-1.21 0.7,-0.3 1.45,-0.45 2.25,-0.45 0.8,0 1.54,0.15 2.25,0.45 0.7,0.3 1.31,0.7 1.82,1.21 0.51,0.51 0.92,1.12 1.22,1.83 0.3,0.7 0.45,1.45 0.45,2.25 0,0.81 -0.15,1.57 -0.45,2.27 -0.3,0.7 -0.7,1.31 -1.22,1.83 -0.52,0.52 -1.12,0.92 -1.82,1.21 -0.7,0.3 -1.45,0.45 -2.25,0.45 -0.8,0 -1.54,-0.15 -2.25,-0.45 -0.7,-0.3 -1.31,-0.7 -1.83,-1.21 -0.52,-0.51 -0.93,-1.12 -1.23,-1.83 -0.3,-0.7 -0.45,-1.46 -0.45,-2.27 z m 5.76,3.84 c 1,0 1.85,-0.37 2.55,-1.12 0.7,-0.75 1.05,-1.65 1.05,-2.72 0,-1.07 -0.35,-1.97 -1.05,-2.71 -0.7,-0.74 -1.55,-1.11 -2.55,-1.11 -1,0 -1.85,0.37 -2.56,1.11 -0.71,0.74 -1.06,1.64 -1.06,2.71 0,1.07 0.35,1.98 1.05,2.72 0.7,0.75 1.56,1.12 2.57,1.12 z"
   id="path913" />
<path
   class="st4"
   d="m 973.21,423.49 c -0.77,0 -1.49,-0.15 -2.17,-0.45 -0.68,-0.3 -1.27,-0.7 -1.77,-1.2 -0.5,-0.51 -0.89,-1.11 -1.18,-1.8 -0.29,-0.69 -0.43,-1.43 -0.43,-2.21 0,-0.78 0.15,-1.52 0.43,-2.22 0.29,-0.69 0.68,-1.29 1.18,-1.8 0.5,-0.51 1.09,-0.91 1.78,-1.2 0.69,-0.3 1.42,-0.45 2.2,-0.45 0.59,0 1.17,0.09 1.73,0.28 0.56,0.19 1.08,0.46 1.55,0.83 v -0.91 h 2.15 v 11.2 c 0,1.43 -0.44,2.54 -1.31,3.31 -0.88,0.77 -2.12,1.16 -3.75,1.16 -0.8,0 -1.58,-0.1 -2.36,-0.28 -0.78,-0.18 -1.47,-0.46 -2.09,-0.8 l 0.85,-1.69 c 0.62,0.32 1.22,0.56 1.8,0.72 0.58,0.16 1.16,0.24 1.74,0.24 0.96,0 1.69,-0.22 2.19,-0.67 0.51,-0.45 0.76,-1.11 0.76,-1.98 v -1.24 c -0.46,0.38 -0.98,0.67 -1.54,0.87 -0.57,0.19 -1.15,0.29 -1.76,0.29 z m -3.43,-5.66 c 0,1.06 0.35,1.95 1.06,2.68 0.71,0.73 1.59,1.1 2.63,1.1 0.62,0 1.2,-0.11 1.72,-0.34 0.52,-0.23 0.96,-0.54 1.32,-0.95 v -4.99 c -0.35,-0.4 -0.78,-0.72 -1.31,-0.95 -0.53,-0.22 -1.1,-0.34 -1.73,-0.34 -1.04,0 -1.92,0.37 -2.63,1.1 -0.71,0.73 -1.06,1.63 -1.06,2.69 z"
   id="path915" />
<path
   class="st4"
   d="m 982.65,410.57 c -0.36,0 -0.67,-0.13 -0.93,-0.4 -0.26,-0.27 -0.39,-0.58 -0.39,-0.94 0,-0.36 0.13,-0.68 0.39,-0.95 0.26,-0.27 0.57,-0.4 0.93,-0.4 0.36,0 0.68,0.13 0.94,0.4 0.27,0.27 0.4,0.58 0.4,0.95 0,0.36 -0.13,0.68 -0.4,0.94 -0.26,0.27 -0.58,0.4 -0.94,0.4 z m 1.09,1.78 v 11.05 h -2.17 v -11.05 z"
   id="path917" />
<path
   class="st4"
   d="m 996.2,422.15 c -0.64,0.49 -1.3,0.86 -2,1.1 -0.7,0.24 -1.45,0.36 -2.28,0.36 -0.81,0 -1.57,-0.15 -2.28,-0.45 -0.71,-0.3 -1.33,-0.7 -1.85,-1.21 -0.52,-0.51 -0.93,-1.11 -1.23,-1.81 -0.3,-0.7 -0.45,-1.46 -0.45,-2.27 0,-0.8 0.15,-1.54 0.43,-2.24 0.29,-0.7 0.68,-1.3 1.17,-1.8 0.49,-0.51 1.08,-0.91 1.76,-1.21 0.68,-0.3 1.4,-0.45 2.17,-0.45 0.75,0 1.46,0.15 2.12,0.45 0.66,0.3 1.22,0.7 1.69,1.22 0.47,0.51 0.84,1.13 1.12,1.83 0.27,0.71 0.41,1.47 0.41,2.28 v 0.63 h -8.73 c 0.15,0.91 0.56,1.67 1.26,2.27 0.7,0.6 1.52,0.9 2.47,0.9 0.54,0 1.05,-0.09 1.54,-0.26 0.49,-0.17 0.91,-0.41 1.26,-0.72 z M 991.62,414 c -0.83,0 -1.54,0.27 -2.16,0.82 -0.62,0.55 -1,1.26 -1.16,2.13 h 6.56 c -0.16,-0.84 -0.54,-1.54 -1.14,-2.11 -0.6,-0.55 -1.3,-0.84 -2.1,-0.84 z"
   id="path919" />
<path
   class="st4"
   d="m 998.35,421.97 1.17,-1.43 c 0.58,0.45 1.17,0.79 1.77,1.03 0.6,0.24 1.21,0.36 1.84,0.36 0.78,0 1.42,-0.15 1.91,-0.46 0.49,-0.3 0.74,-0.7 0.74,-1.19 0,-0.39 -0.15,-0.7 -0.43,-0.93 -0.29,-0.23 -0.74,-0.39 -1.35,-0.48 l -2,-0.28 c -1.09,-0.16 -1.91,-0.5 -2.46,-1.01 -0.56,-0.51 -0.84,-1.2 -0.84,-2.05 0,-1 0.4,-1.81 1.19,-2.42 0.8,-0.62 1.84,-0.92 3.13,-0.92 0.81,0 1.58,0.12 2.31,0.35 0.73,0.23 1.44,0.59 2.14,1.06 l -1.11,1.43 c -0.61,-0.4 -1.2,-0.7 -1.77,-0.88 -0.57,-0.18 -1.15,-0.27 -1.73,-0.27 -0.67,0 -1.2,0.14 -1.61,0.41 -0.41,0.28 -0.61,0.64 -0.61,1.09 0,0.4 0.14,0.71 0.42,0.92 0.28,0.21 0.75,0.37 1.4,0.47 l 2,0.28 c 1.09,0.16 1.91,0.5 2.49,1.02 0.57,0.52 0.86,1.21 0.86,2.06 0,0.49 -0.12,0.95 -0.36,1.38 -0.24,0.43 -0.56,0.79 -0.98,1.1 -0.41,0.3 -0.9,0.55 -1.47,0.73 -0.56,0.18 -1.17,0.27 -1.82,0.27 -0.96,0 -1.85,-0.14 -2.68,-0.41 -0.82,-0.29 -1.54,-0.69 -2.15,-1.23 z"
   id="path921" />
<polygon
   class="st1"
   points="900.62,279.98 918.39,244.16 821.51,310.92 "
   id="polygon923" />
<polygon
   class="st2"
   points="847.97,277.62 918.56,244.08 868.33,278.79 "
   id="polygon925" />
<polygon
   class="st2"
   points="959.62,160.13 863.98,111.97 925.17,230.55 "
   id="polygon927" />
<polygon
   class="st3"
   points="886.69,155.87 857.48,153.96 925.24,230.56 "
   id="polygon929" />
<polygon
   class="st3"
   points="1063.28,181.95 1034.68,155.69 1026.5,180.85 "
   id="polygon931" />
<polygon
   class="st1"
   points="1034.75,155.69 977.9,196.54 1004.87,249.27 "
   id="polygon933" />
<polygon
   class="st3"
   points="1004.94,249.13 959.54,159.82 900.41,279.98 "
   id="polygon935" />
<text
   style="font-style:normal;font-weight:normal;font-size:40px;line-height:1.25;font-family:sans-serif;white-space:pre;shape-inside:url(#rect900);fill:#000000;fill-opacity:1;stroke:none;"
   id="text898"
   xml:space="preserve" /><text
   id="text906"
   y="39.099651"
   x="122.95558"
   style="font-style:normal;font-weight:normal;font-size:40px;line-height:1;font-family:sans-serif;fill:#000000;fill-opacity:1;stroke:none"
   xml:space="preserve"><tspan
     id="tspan908"
     style="font-style:normal;font-variant:normal;font-weight:bold;font-stretch:normal;font-family:'Red Hat Display';-inkscape-font-specification:'Red Hat Display Bold';fill:#00363a;fill-opacity:1"
     y="39.099651"
     x="122.95558"
     sodipodi:role="line"><tspan
   style="font-style:normal;font-variant:normal;font-weight:bold;font-stretch:normal;font-family:'Red Hat Display';-inkscape-font-specification:'Red Hat Display Bold';fill:#00363a;fill-opacity:0.466667"
   id="tspan910">sarus</tspan></tspan><tspan
     id="tspan918"
     style="font-style:normal;font-variant:normal;font-weight:bold;font-stretch:normal;font-family:'Red Hat Display';-inkscape-font-specification:'Red Hat Display Bold';fill:#00363a;fill-opacity:1"
     y="79.814331"
     x="122.95558"
     sodipodi:role="line">dp-xgboost</tspan></text></svg>
